<?xml version="1.0" encoding="utf-8"?>
<!-- Svg Vector Icons : http://www.onlinewebfonts.com/icon -->
<!DOCTYPE svg PUBLIC "-//W3C//DTD SVG 1.1//EN" "http://www.w3.org/Graphics/SVG/1.1/DTD/svg11.dtd">
<svg version="1.1" xmlns="http://www.w3.org/2000/svg" xmlns:xlink="http://www.w3.org/1999/xlink" x="0px" y="0px" viewBox="0 0 1000 1000" enable-background="new 0 0 1000 1000" xml:space="preserve">
<metadata> Svg Vector Icons : http://www.onlinewebfonts.com/icon </metadata>
<g><path d="M500,990C229.8,990,10,770.2,10,500C10,229.8,229.8,10,500,10c270.2,0,490,219.8,490,490C990,770.2,770.2,990,500,990L500,990z M500,67.3C259.5,67.3,63.8,263,63.8,503.5C63.8,744,259.5,939.7,500,939.7c240.5,0,436.2-195.7,436.2-436.2C936.2,263,740.5,67.3,500,67.3L500,67.3z"/><path d="M214.3,867.7L165,846c15-33.9,59.2-53.7,110.4-76.7c49.4-22.2,110.9-49.8,110.9-82.5v-44.5c-17.5-14.7-47.2-46.2-51.8-93.7c-14.2-13.4-37.7-40.6-37.7-74.4c0-20.5,8.1-37,15.2-47.5c-4.3-22-12.5-68-12.5-101.7c0-113.1,78.7-186.1,200.5-186.1c35,0,77.4,9.4,101.1,34.7c55.2,9.7,99.5,75.1,99.5,151.4c0,48.9-8.6,89.2-13.8,109.1c5.8,9.8,12,24.2,12,41c0,37.9-19.2,62.5-37,75.6c-5.1,46.8-31.7,76.9-48,91.2v44.8c0,27.8,50.4,46.5,99.2,64.6c55.5,20.5,112.8,41.8,130.6,88.3L793.2,859c-9-23.7-56.8-41.4-99-57.1c-62.9-23.4-134.3-49.8-134.3-115.1v-72.8l12.6-7.9c1.3-0.8,36.3-24.3,36.3-71.3v-18.2l16.9-6.8c2.8-1.3,19.3-10,19.3-34.7c0-7.6-5.8-16.1-7.8-18.4l-9.8-11.5l4.5-14.7c0.1-0.5,14.9-46,14.9-105.5c0-50.8-29.1-98.8-59.9-98.8h-15.5l-7.8-13.3c-5.7-9.8-29.9-20.1-63.6-20.1c-91.9,0-146.7,49.4-146.7,132.3c0,39.1,13.7,102.1,13.9,102.8l3.2,14.6l-10.7,10.4c0,0-9.1,9.6-9.1,21.4c0,14.9,17.9,33.5,26.5,40.1l10.5,8.1l0.1,13.3c0,44.3,38.3,69.3,39.9,70.4l12.4,7.9l0.1,72.7c0,67.6-75.8,101.6-142.7,131.6C265,832.9,220.9,852.7,214.3,867.7"/></g>
</svg>